<svg version="1.2" xmlns="http://www.w3.org/2000/svg" viewBox="0 0 23 23" width="23" height="23">
	<title>New Project</title>
	<style>
		.s0 { fill: #e37a40 } 
	</style>
	<path id="Shape 1" class="s0" d="m-255.2-629.2l-5.6-5.6c1.5-1.7 2.4-3.9 2.4-6.4 0-5.4-4.4-9.8-9.8-9.8-5.4 0-9.8 4.4-9.8 9.8 0 5.4 4.4 9.8 9.8 9.8 2.5 0 4.7-0.9 6.4-2.4l5.6 5.6q0.2 0.2 0.5 0.2 0.3 0 0.5-0.2c0.3-0.3 0.3-0.7 0-1zm-21.4-12c0-4.6 3.8-8.4 8.4-8.4 4.6 0 8.4 3.8 8.4 8.4 0 4.7-3.8 8.4-8.4 8.4-4.6 0-8.4-3.7-8.4-8.4z"/>
	<path id="Shape 1" class="s0" d="m22.8 21.8l-5.6-5.6c1.5-1.7 2.4-3.9 2.4-6.4 0-5.4-4.4-9.8-9.8-9.8-5.4 0-9.8 4.4-9.8 9.8 0 5.4 4.4 9.8 9.8 9.8 2.5 0 4.7-0.9 6.4-2.4l5.6 5.6q0.2 0.2 0.5 0.2 0.3 0 0.5-0.2c0.3-0.3 0.3-0.7 0-1zm-21.4-12c0-4.6 3.8-8.4 8.4-8.4 4.6 0 8.4 3.8 8.4 8.4 0 4.7-3.8 8.4-8.4 8.4-4.6 0-8.4-3.7-8.4-8.4z"/>
</svg>